<svg xmlns="http://www.w3.org/2000/svg" width="360" height="420" viewBox="0 0 360 420">
  <defs>
    <filter id="ds" x="-20%" y="-20%" width="140%" height="140%">
      <feDropShadow dx="0" dy="10" stdDeviation="10" flood-color="#000" flood-opacity=".16"/>
    </filter>
  </defs>
  <g filter="url(#ds)">
    <circle cx="170" cy="160" r="72" fill="#ffd7b6"/>
    <path d="M110 150c10-58 46-84 92-84 44 0 84 26 92 80-20-14-44-22-84-22-44 0-70 10-100 26z" fill="#2b1b3a"/>
    <circle cx="146" cy="162" r="14" fill="#ffffff"/>
    <circle cx="194" cy="162" r="14" fill="#ffffff"/>
    <circle cx="148" cy="164" r="6" fill="#2b1b3a"/>
    <circle cx="196" cy="164" r="6" fill="#2b1b3a"/>
    <path d="M148 194c16 16 44 16 60 0" fill="none" stroke="#2b1b3a" stroke-width="7" stroke-linecap="round"/>

    <path d="M60 110l120-56 120 56-120 56z" fill="#5a2a86"/>
    <path d="M125 118l55-26 55 26-55 26z" fill="#ffd24b"/>
    <path d="M300 110v70" stroke="#5a2a86" stroke-width="10" stroke-linecap="round"/>
    <circle cx="300" cy="188" r="12" fill="#ff4b4b"/>

    <path d="M92 238h196l-30 140H122z" fill="#5a2a86"/>
    <path d="M150 238h40v70h-40z" fill="#ffd24b"/>

    <g transform="translate(240 250) rotate(10)">
      <rect x="0" y="0" width="92" height="64" rx="10" fill="#fff" stroke="#e0e0e0" stroke-width="6"/>
      <path d="M16 22h60M16 40h60" stroke="#c9c9c9" stroke-width="6" stroke-linecap="round"/>
      <circle cx="70" cy="44" r="10" fill="#ffd24b" stroke="#5a2a86" stroke-width="6"/>
    </g>
  </g>
</svg>
